<svg width="48" height="48" viewBox="0 0 48 48" fill="none" xmlns="http://www.w3.org/2000/svg">
<rect x="0.998535" y="1" width="45.9985" height="46" rx="22.9992" stroke="#020E20" stroke-width="2"/>
<g clip-path="url(#clip0_2_712)">
<path d="M30.2464 20.1926C30.9776 20.1926 31.5704 19.5998 31.5704 18.8686C31.5704 18.1374 30.9776 17.5446 30.2464 17.5446C29.5151 17.5446 28.9224 18.1374 28.9224 18.8686C28.9224 19.5998 29.5151 20.1926 30.2464 20.1926Z" fill="white"/>
<path fill-rule="evenodd" clip-rule="evenodd" d="M19.0166 24.5333C19.0166 27.5757 21.4908 30.0499 24.5333 30.0499C27.5757 30.0499 30.0499 27.5757 30.0499 24.5333C30.0499 21.4908 27.5757 19.0166 24.5333 19.0166C21.4908 19.0166 19.0166 21.4908 19.0166 24.5333ZM21.7749 24.5332C21.7749 23.012 23.012 21.7749 24.5332 21.7749C26.0544 21.7749 27.2916 23.012 27.2916 24.5332C27.2916 26.0544 26.0544 27.2916 24.5332 27.2916C23.012 27.2916 21.7749 26.0544 21.7749 24.5332Z" fill="white"/>
<path fill-rule="evenodd" clip-rule="evenodd" d="M19.0167 35.5667H30.05C32.8856 35.5667 35.5667 32.8856 35.5667 30.05V19.0167C35.5667 16.1811 32.8856 13.5 30.05 13.5H19.0167C16.1811 13.5 13.5 16.1811 13.5 19.0167V30.05C13.5 32.8856 16.1811 35.5667 19.0167 35.5667ZM16.2583 19.0164C16.2583 17.7269 17.7271 16.2581 19.0166 16.2581H30.05C31.3395 16.2581 32.8083 17.7269 32.8083 19.0164V30.0498C32.8083 31.3393 31.3395 32.8081 30.05 32.8081H19.0166C17.7023 32.8081 16.2583 31.3641 16.2583 30.0498V19.0164Z" fill="white"/>
</g>
<defs>
<clipPath id="clip0_2_712">
<rect width="23.9985" height="24" fill="white" transform="translate(11.9985 12)"/>
</clipPath>
</defs>
</svg>
