<svg width="48" height="48" viewBox="0 0 48 48" fill="none" xmlns="http://www.w3.org/2000/svg">
<rect x="0.995605" y="1" width="45.9985" height="46" rx="22.9992" stroke="#020E20" stroke-width="2"/>
<g clip-path="url(#clip0_2_725)">
<path d="M33.998 17.8008C33.2464 18.1269 32.4515 18.3425 31.638 18.4408C32.4962 17.9281 33.1393 17.1216 33.448 16.1708C32.6416 16.6509 31.7588 16.9891 30.838 17.1708C30.2226 16.5034 29.403 16.0591 28.5079 15.9077C27.6127 15.7562 26.6926 15.9062 25.8918 16.334C25.0911 16.7618 24.455 17.4434 24.0833 18.2717C23.7116 19.1 23.6253 20.0282 23.838 20.9108C22.2075 20.8283 20.6125 20.4038 19.1567 19.6647C17.7009 18.9256 16.4169 17.8885 15.388 16.6208C15.0272 17.251 14.8376 17.9646 14.838 18.6908C14.8368 19.3652 15.0023 20.0294 15.3198 20.6244C15.6373 21.2193 16.0971 21.7265 16.658 22.1008C16.006 22.0831 15.3679 21.9081 14.798 21.5908V21.6408C14.8029 22.5857 15.134 23.4999 15.7354 24.2288C16.3367 24.9577 17.1713 25.4565 18.098 25.6408C17.7413 25.7494 17.3709 25.8066 16.998 25.8108C16.7399 25.8078 16.4825 25.7844 16.228 25.7408C16.492 26.5536 17.0027 27.264 17.6891 27.773C18.3756 28.282 19.2036 28.5644 20.058 28.5808C18.6153 29.7161 16.8339 30.3357 14.998 30.3408C14.6638 30.3419 14.3298 30.3219 13.998 30.2808C15.8725 31.4911 18.0569 32.1335 20.288 32.1308C21.8277 32.1468 23.3552 31.8558 24.7812 31.2749C26.2071 30.694 27.5031 29.8347 28.5933 28.7473C29.6834 27.6599 30.546 26.3662 31.1306 24.9417C31.7152 23.5172 32.0101 21.9905 31.998 20.4508C31.998 20.2808 31.998 20.1008 31.998 19.9208C32.7827 19.3356 33.4595 18.6182 33.998 17.8008Z" fill="white"/>
</g>
<defs>
<clipPath id="clip0_2_725">
<rect width="23.9985" height="24" fill="white" transform="translate(11.9956 12)"/>
</clipPath>
</defs>
</svg>
