<svg width="48" height="48" viewBox="0 0 48 48" fill="none" xmlns="http://www.w3.org/2000/svg">
<rect x="1" y="1" width="45.9985" height="46" rx="22.9992" stroke="#020E20" stroke-width="2"/>
<g clip-path="url(#clip0_2_709)">
<path d="M24.0765 15.5707H24.21C25.443 15.5752 31.6905 15.6202 33.375 16.0732C33.8842 16.2115 34.3483 16.481 34.7207 16.8548C35.0932 17.2285 35.361 17.6935 35.4975 18.2032C35.649 18.7732 35.7555 19.5277 35.8275 20.3062L35.8425 20.4622L35.8755 20.8522L35.8875 21.0082C35.985 22.3792 35.997 23.6632 35.9985 23.9437V24.0562C35.997 24.3472 35.9835 25.7182 35.8755 27.1462L35.8635 27.3037L35.85 27.4597C35.775 28.3177 35.664 29.1697 35.4975 29.7967C35.3615 30.3067 35.0938 30.7719 34.7212 31.1457C34.3487 31.5196 33.8844 31.7889 33.375 31.9267C31.635 32.3947 25.0215 32.4277 24.105 32.4292H23.892C23.4285 32.4292 21.5115 32.4202 19.5015 32.3512L19.2465 32.3422L19.116 32.3362L18.8595 32.3257L18.603 32.3152C16.938 32.2417 15.3525 32.1232 14.622 31.9252C14.1127 31.7875 13.6486 31.5184 13.2761 31.1449C12.9036 30.7713 12.6358 30.3064 12.4995 29.7967C12.333 29.1712 12.222 28.3177 12.147 27.4597L12.135 27.3022L12.123 27.1462C12.049 26.1298 12.0079 25.1113 12 24.0922L12 23.9077C12.003 23.5852 12.015 22.4707 12.096 21.2407L12.1065 21.0862L12.111 21.0082L12.123 20.8522L12.156 20.4622L12.171 20.3062C12.243 19.5277 12.3495 18.7717 12.501 18.2032C12.637 17.6933 12.9047 17.2281 13.2773 16.8543C13.6498 16.4804 14.1141 16.2111 14.6235 16.0732C15.354 15.8782 16.9395 15.7582 18.6045 15.6832L18.8595 15.6727L19.1175 15.6637L19.2465 15.6592L19.503 15.6487C20.9306 15.6028 22.3587 15.5773 23.787 15.5722H24.0765V15.5707ZM21.6 20.3857V27.6127L27.8355 24.0007L21.6 20.3857Z" fill="white"/>
</g>
<defs>
<clipPath id="clip0_2_709">
<rect width="23.9985" height="24" fill="white" transform="translate(12 12)"/>
</clipPath>
</defs>
</svg>
